<?xml version="1.0" standalone="no"?>
<!DOCTYPE svg PUBLIC "-//W3C//DTD SVG 20010904//EN"
 "http://www.w3.org/TR/2001/REC-SVG-20010904/DTD/svg10.dtd">
<svg version="1.0" xmlns="http://www.w3.org/2000/svg"
 width="460.000000pt" height="460.000000pt" viewBox="0 0 460.000000 460.000000"
 preserveAspectRatio="xMidYMid meet">
<metadata>
Created by potrace 1.11, written by Peter Selinger 2001-2013
</metadata>
<g transform="translate(0.000000,460.000000) scale(0.100000,-0.100000)"
fill="#000000" stroke="none">
<path d="M3717 3484 c-1 -1 -51 -4 -111 -8 -59 -3 -113 -9 -119 -13 -10 -6
-47 -9 -262 -17 -66 -3 -140 -8 -165 -12 -25 -5 -58 -9 -75 -9 -16 -1 -46 -5
-65 -9 -19 -4 -51 -9 -70 -11 -19 -2 -66 -11 -105 -20 -38 -10 -87 -19 -108
-21 -21 -1 -45 -8 -53 -15 -8 -6 -40 -12 -71 -14 -62 -3 -93 -12 -93 -26 0 -5
-14 -9 -32 -9 -17 0 -84 -16 -147 -36 -207 -63 -328 -95 -356 -95 -11 0 -34
-4 -51 -10 -17 -5 -41 -12 -54 -14 -12 -2 -30 -11 -39 -19 -9 -7 -43 -26 -76
-41 -98 -44 -105 -48 -105 -61 0 -6 -12 -15 -27 -19 -35 -8 -83 -53 -83 -76 0
-48 69 -58 173 -25 48 15 58 9 38 -23 -11 -17 3 -49 27 -67 9 -6 32 -9 51 -7
27 3 32 1 21 -6 -8 -6 -29 -11 -46 -11 -36 0 -54 -16 -54 -49 0 -47 25 -61 94
-54 33 3 70 12 81 18 11 7 42 13 70 14 27 2 57 7 67 12 11 6 19 5 23 -2 4 -6
18 -8 34 -4 14 4 34 9 44 11 10 2 26 5 35 8 9 3 35 8 57 12 22 3 43 8 47 11 4
2 5 -3 2 -11 -3 -8 -21 -22 -40 -31 -20 -9 -38 -23 -41 -31 -3 -8 -10 -14 -17
-14 -6 0 -33 -22 -61 -49 -27 -26 -106 -93 -175 -149 -120 -96 -180 -150 -246
-223 -44 -49 -123 -119 -133 -119 -5 0 -24 -18 -42 -41 -19 -22 -80 -88 -136
-145 -57 -57 -110 -116 -119 -129 -9 -14 -22 -25 -29 -25 -6 0 -20 -16 -31
-37 -27 -52 -96 -125 -141 -148 -56 -29 -93 -57 -93 -71 0 -6 -13 -27 -30 -45
-16 -19 -30 -37 -30 -41 0 -4 -10 -10 -22 -14 -31 -10 -42 -23 -62 -76 -19
-50 -16 -77 15 -117 11 -13 19 -32 19 -43 0 -10 22 -41 50 -68 27 -27 50 -53
50 -57 0 -17 64 -46 99 -45 39 1 209 56 225 72 5 5 22 10 37 10 15 0 44 7 65
16 21 9 45 18 53 20 45 10 119 39 141 54 14 10 49 20 79 24 29 4 57 9 61 11 4
3 29 7 56 10 27 4 58 14 69 24 17 15 127 48 146 43 4 -1 22 4 40 10 19 6 61
14 94 18 33 4 78 15 100 23 22 8 65 18 95 22 30 4 62 11 71 16 9 4 19 6 22 2
4 -3 28 1 54 10 26 8 68 18 93 22 25 4 55 13 68 21 12 8 22 13 22 10 0 -2 37
7 83 21 45 13 98 26 117 28 19 1 49 8 65 14 36 13 144 39 205 51 66 12 80 20
87 48 8 33 -8 56 -41 60 -21 3 -24 6 -13 16 7 8 39 13 80 13 39 0 74 6 83 13
24 20 13 63 -19 78 -16 8 -27 15 -25 17 4 5 51 14 108 21 25 3 56 12 69 21 19
12 41 15 107 10 67 -5 85 -3 95 10 23 26 18 43 -19 71 -33 25 -42 27 -131 26
-98 0 -341 -12 -383 -19 -67 -10 -123 -15 -218 -20 -243 -12 -286 -15 -310
-19 -14 -3 -42 -7 -64 -10 -21 -4 -43 -9 -48 -12 -5 -3 -33 -8 -61 -10 -29 -2
-65 -8 -82 -13 -16 -5 -59 -12 -95 -16 -36 -4 -70 -11 -75 -15 -6 -5 -36 -16
-67 -24 -31 -8 -66 -20 -78 -26 -18 -10 -21 -9 -18 2 2 7 17 19 33 27 16 8 61
46 100 86 38 39 99 96 135 126 35 29 76 64 90 77 13 12 28 22 32 22 5 0 37 28
73 63 35 34 76 71 90 82 26 21 41 60 25 70 -5 3 -2 21 5 39 8 18 11 37 7 42
-4 5 4 0 18 -12 14 -11 30 -20 35 -19 32 4 87 38 97 59 6 15 15 26 19 26 5 0
27 18 51 41 24 22 70 62 102 87 32 26 82 70 110 97 60 59 102 94 130 109 37
20 111 71 114 79 2 4 9 7 16 7 7 0 21 9 31 20 10 11 24 20 32 20 7 0 22 9 32
19 27 27 56 41 85 41 14 0 28 5 31 10 4 6 10 8 14 5 5 -2 23 3 41 12 19 9 49
18 68 20 46 5 71 19 81 46 12 31 -3 53 -40 61 -31 6 -32 7 -13 21 11 8 42 14
76 15 59 0 88 16 88 48 0 24 -12 38 -39 47 -43 13 -7 30 88 40 45 5 81 31 81
59 0 16 -19 25 -37 19 -7 -3 -13 -11 -13 -19 0 -8 -6 -14 -12 -15 -7 0 -33 -2
-58 -3 -25 -1 -58 -9 -75 -18 -31 -16 -186 -52 -218 -50 -10 0 -23 -9 -28 -21
-11 -24 -45 -43 -97 -53 -21 -4 -30 -10 -24 -16 6 -6 28 -3 58 7 105 37 237
17 160 -24 -13 -7 -30 -24 -37 -37 -7 -14 -23 -27 -36 -30 -12 -4 -20 -10 -17
-15 3 -6 13 -8 22 -5 43 12 121 16 127 6 8 -12 -17 -23 -59 -25 -17 -1 -44 -7
-61 -15 -16 -7 -34 -14 -40 -15 -5 -1 -13 -3 -17 -4 -5 -2 -20 -3 -35 -4 -15
-1 -35 -9 -45 -19 -10 -10 -24 -15 -33 -12 -10 4 -15 0 -15 -15 0 -12 -4 -22
-10 -22 -11 -2 -25 -5 -37 -9 -5 -1 -11 -2 -15 -1 -5 0 -8 -6 -8 -14 0 -8 -7
-15 -15 -15 -9 0 -18 -7 -21 -15 -4 -8 -10 -15 -14 -15 -19 0 -261 -175 -253
-183 8 -9 -25 -45 -48 -52 -18 -6 -29 -15 -113 -92 -20 -18 -37 -33 -39 -33
-2 0 -30 -25 -62 -55 -63 -61 -77 -67 -72 -31 2 15 39 59 97 115 52 50 88 91
81 91 -7 0 -39 -27 -71 -60 -32 -33 -65 -60 -73 -60 -16 0 -77 -52 -77 -67 0
-4 -24 -22 -53 -38 -31 -18 -53 -39 -55 -51 -1 -11 -16 -25 -32 -33 -39 -17
-40 -42 -3 -35 31 6 55 23 48 34 -3 4 2 10 10 14 20 7 19 -18 -2 -39 -11 -11
-13 -19 -5 -24 6 -4 -8 -24 -38 -52 -27 -26 -51 -45 -53 -43 -2 2 -10 -7 -17
-21 -7 -13 -21 -27 -30 -30 -9 -3 -25 -13 -36 -23 -10 -10 -62 -53 -114 -96
-52 -44 -99 -86 -104 -95 -15 -25 -68 -73 -113 -103 -23 -15 -45 -38 -49 -50
-3 -13 -18 -34 -32 -48 -21 -21 -22 -25 -7 -28 9 -2 30 2 47 9 17 7 40 14 52
15 12 1 52 13 90 27 39 14 74 24 78 21 4 -3 8 -1 8 5 0 5 21 13 48 16 76 11
91 13 112 20 10 3 43 7 73 9 29 1 59 6 65 10 7 4 25 9 40 12 15 2 42 6 60 10
35 5 110 10 312 19 69 2 136 7 149 10 47 9 117 14 271 20 85 3 174 8 198 11
27 2 54 -1 72 -11 17 -9 30 -17 30 -18 0 -1 -45 0 -100 1 -82 3 -100 1 -100
-10 0 -9 -12 -16 -32 -17 -78 -5 -94 -8 -114 -19 -21 -11 -149 -43 -162 -40
-4 1 -25 -3 -47 -7 -22 -5 -45 -8 -51 -7 -6 1 -17 -9 -24 -23 -10 -18 -27 -27
-67 -36 -30 -7 -57 -17 -60 -22 -4 -6 5 -7 23 -3 63 14 81 17 142 21 35 3 73
0 83 -6 19 -10 17 -12 -20 -40 -23 -16 -41 -34 -41 -39 0 -6 -9 -10 -19 -10
-11 0 -23 -5 -26 -11 -5 -7 19 -9 81 -4 78 6 86 5 74 -9 -8 -11 -29 -16 -60
-16 -27 0 -50 -4 -52 -9 -1 -5 -16 -10 -33 -12 -16 -2 -34 -6 -40 -10 -5 -3
-25 -7 -44 -7 -18 0 -41 -8 -51 -17 -10 -9 -23 -14 -29 -11 -5 4 -49 -5 -98
-20 -48 -14 -97 -27 -108 -28 -11 -2 -32 -8 -47 -14 -15 -6 -50 -14 -78 -18
-27 -4 -50 -11 -50 -16 0 -5 -4 -6 -10 -3 -5 3 -15 3 -22 -1 -7 -4 -21 -9 -32
-10 -79 -9 -195 -36 -222 -51 -11 -7 -45 -13 -75 -14 -30 -1 -62 -6 -72 -11
-10 -5 -28 -11 -40 -13 -44 -8 -112 -16 -124 -16 -50 2 -63 5 -63 12 0 5 5 9
10 9 6 0 10 6 10 14 0 24 -41 26 -88 5 -24 -11 -51 -18 -59 -15 -10 4 -13 0
-11 -12 4 -18 12 -19 88 -9 25 4 36 4 25 1 -39 -11 -42 -27 -3 -20 20 4 39 2
42 -3 7 -10 -22 -37 -30 -28 -3 3 -17 1 -31 -4 -30 -11 -83 -20 -133 -23 -19
-1 -49 -12 -65 -24 -17 -12 -39 -23 -50 -25 -11 -2 -31 -9 -43 -16 -13 -7 -34
-15 -48 -17 -13 -2 -36 -10 -51 -16 -16 -6 -45 -12 -66 -12 -21 -1 -42 -7 -46
-15 -5 -8 -51 -28 -103 -46 -116 -38 -146 -34 -179 25 -13 22 -27 40 -32 40
-14 0 -41 31 -42 49 -1 9 -13 34 -27 55 -14 21 -25 43 -24 49 10 49 21 68 44
78 15 6 45 36 67 66 60 81 63 84 90 83 3 0 17 11 31 25 14 14 31 25 39 25 8 0
15 3 15 8 0 4 20 29 43 55 24 26 49 59 56 73 6 14 20 28 31 31 11 3 20 11 20
18 0 16 183 205 199 205 7 0 10 4 7 8 -5 9 75 102 87 102 4 0 21 15 40 33 18
17 51 48 73 67 22 19 48 48 58 63 9 15 25 31 34 34 9 4 26 17 37 29 46 51 54
59 67 69 7 6 42 33 78 60 36 28 102 82 147 120 103 88 141 119 154 124 6 1 22
14 36 27 14 13 30 24 35 24 16 0 68 43 68 57 0 15 -36 18 -44 4 -3 -5 -33 -7
-66 -6 -53 3 -106 -5 -150 -22 -8 -3 -25 -5 -37 -4 -13 1 -23 -3 -23 -10 0 -9
-4 -8 -15 1 -12 10 -25 10 -58 2 -23 -6 -49 -11 -57 -10 -8 0 -27 -2 -43 -5
-20 -4 -30 -1 -37 13 -8 15 -4 19 28 25 20 4 60 18 88 31 28 13 59 24 69 24
10 0 15 3 11 8 -7 6 -36 8 -166 11 -28 1 -66 -5 -78 -13 -7 -4 -12 -5 -12 -2
0 3 -11 1 -25 -4 -30 -12 -46 7 -21 26 10 7 19 21 20 31 2 11 16 22 37 28 58
17 64 25 32 44 -26 17 -30 17 -59 0 -21 -11 -36 -14 -47 -7 -11 6 -17 5 -17
-2 0 -5 -8 -10 -19 -10 -10 0 -35 -7 -55 -15 -21 -9 -56 -18 -79 -21 l-42 -6
29 26 c16 14 35 26 43 26 7 0 21 10 31 21 15 19 48 36 155 82 15 7 27 15 27
20 0 4 6 7 13 5 6 -1 21 2 32 8 11 6 35 11 54 13 19 1 39 5 45 10 15 12 63 23
116 26 24 2 46 8 48 14 2 6 20 13 40 16 20 4 53 13 72 20 57 24 182 55 217 55
18 0 36 7 40 15 6 9 32 16 77 19 43 4 76 12 87 22 11 10 19 12 23 5 5 -7 15
-7 34 0 15 6 42 12 61 15 18 2 38 7 44 11 7 4 18 8 27 9 8 1 35 5 60 9 53 8
79 12 140 19 25 3 56 8 70 11 25 6 285 18 349 16 18 -1 51 4 73 10 23 6 109
13 192 15 190 7 191 7 191 30 0 17 -8 19 -78 19 -43 0 -79 -1 -80 -1z m-21
-219 c17 -13 12 -14 -53 -15 -48 0 -73 4 -73 11 0 7 11 9 28 6 15 -3 34 -2 42
4 21 12 33 11 56 -6z m-1896 -526 c0 -5 -13 -9 -30 -9 -35 0 -41 17 -7 22 26
5 37 1 37 -13z m-80 -10 c0 -5 -4 -9 -10 -9 -5 0 -10 7 -10 16 0 8 5 12 10 9
6 -3 10 -10 10 -16z m1506 -952 c8 -7 5 -8 -92 -10 -38 -1 -60 2 -58 8 5 12
139 14 150 2z"/>
<path d="M3590 3370 c-9 -6 -10 -10 -3 -10 6 0 15 5 18 10 8 12 4 12 -15 0z"/>
<path d="M3380 3126 c0 -9 7 -12 20 -9 31 8 34 23 6 23 -16 0 -26 -6 -26 -14z"/>
<path d="M3063 2957 c-41 -41 -78 -69 -105 -79 -16 -6 -31 -21 -37 -39 -5 -16
-20 -33 -33 -38 -23 -10 -56 -42 -73 -71 -8 -13 -7 -13 10 0 10 8 30 25 43 37
13 12 37 28 53 35 16 7 29 16 29 20 0 5 4 8 10 8 10 0 75 60 75 70 0 3 15 20
34 36 19 17 30 33 25 37 -5 3 -19 -4 -31 -16z"/>
<path d="M2680 2730 c0 -5 7 -10 16 -10 8 0 12 5 9 10 -3 6 -10 10 -16 10 -5
0 -9 -4 -9 -10z"/>
<path d="M2656 2705 c-3 -8 -1 -15 4 -15 6 0 10 7 10 15 0 8 -2 15 -4 15 -2 0
-6 -7 -10 -15z"/>
<path d="M2624 2677 c-6 -7 -35 -30 -63 -52 -54 -42 -73 -72 -21 -33 17 12 30
24 30 28 0 3 14 14 30 23 17 10 30 13 30 8 0 -6 -4 -11 -10 -11 -10 0 -34 -39
-28 -45 5 -5 68 49 68 58 0 4 -7 7 -15 7 -9 0 -12 6 -9 15 7 18 3 19 -12 2z"/>
<path d="M2465 2549 c-4 -6 -5 -12 -2 -15 2 -3 7 2 10 11 7 17 1 20 -8 4z"/>
<path d="M2403 2478 c-13 -6 -23 -17 -23 -25 0 -11 4 -11 20 -1 15 10 38 41
27 37 -1 0 -12 -5 -24 -11z"/>
<path d="M2350 2400 c-8 -5 -11 -12 -7 -16 4 -4 15 0 24 9 18 18 8 23 -17 7z"/>
<path d="M2271 2280 c-29 -28 -57 -50 -61 -50 -12 0 -74 -60 -68 -65 3 -3 19
8 36 25 18 16 35 30 40 30 4 0 34 25 67 55 33 30 56 55 50 55 -5 0 -34 -23
-64 -50z"/>
<path d="M2365 2311 c-3 -5 -1 -12 4 -15 5 -3 11 1 15 9 6 16 -9 21 -19 6z"/>
<path d="M2214 2186 c-3 -9 -13 -16 -21 -16 -10 0 -13 -6 -9 -16 4 -11 1 -14
-13 -9 -20 6 -90 -32 -91 -50 0 -18 -176 -180 -195 -180 -17 -1 -59 -34 -52
-42 4 -3 14 2 22 13 8 10 15 14 15 8 0 -18 -26 -35 -43 -28 -8 3 -18 1 -22 -5
-3 -6 0 -11 7 -11 7 0 -12 -24 -42 -53 -54 -52 -77 -79 -95 -107 -6 -10 -4
-12 11 -6 10 5 24 9 30 9 6 0 9 8 7 16 -3 10 18 37 56 71 34 30 91 83 128 117
38 35 98 82 136 105 37 24 67 47 67 53 0 5 15 24 32 40 17 17 28 24 24 18 -4
-8 -1 -13 8 -13 9 0 16 4 16 9 0 6 14 23 31 39 27 25 29 30 15 41 -13 11 -17
11 -22 -3z"/>
<path d="M3095 1880 c-3 -5 1 -10 10 -10 9 0 13 5 10 10 -3 6 -8 10 -10 10 -2
0 -7 -4 -10 -10z"/>
<path d="M2745 1739 c-11 -17 -2 -18 25 -4 24 14 24 14 3 15 -12 0 -25 -5 -28
-11z"/>
<path d="M2865 1650 c4 -6 11 -8 16 -5 14 9 11 15 -7 15 -8 0 -12 -5 -9 -10z"/>
<path d="M2550 1562 c0 -10 -7 -12 -25 -8 -14 4 -25 2 -25 -4 0 -17 47 -11 81
9 l32 20 -31 -1 c-21 -1 -32 -6 -32 -16z"/>
<path d="M2243 1536 c7 -19 -16 -38 -47 -40 -13 0 -22 -3 -20 -5 7 -7 -89 -50
-113 -50 -22 -1 -40 -18 -29 -28 3 -3 28 2 55 11 27 9 57 16 65 16 9 0 16 5
16 10 0 6 11 10 24 10 14 0 27 4 30 9 5 7 90 24 133 26 24 1 8 20 -16 20 -15
1 -27 8 -31 20 -4 12 -9 15 -14 7 -5 -8 -14 -8 -32 -1 -21 8 -25 7 -21 -5z"/>
<path d="M2436 1541 c-3 -5 5 -8 19 -7 14 0 25 4 25 9 0 10 -38 9 -44 -2z"/>
<path d="M1985 1500 c-4 -6 7 -10 25 -10 18 0 29 4 25 10 -3 6 -15 10 -25 10
-10 0 -22 -4 -25 -10z"/>
<path d="M2070 1480 c-24 -6 -24 -6 -4 -12 12 -3 27 -2 34 2 18 11 -1 18 -30
10z"/>
<path d="M1877 1451 c-26 -6 -27 -8 -14 -25 14 -19 16 -19 42 -2 14 10 32 16
38 13 7 -2 25 1 41 8 28 12 27 12 -25 12 -30 0 -67 -3 -82 -6z"/>
<path d="M1460 1292 c0 -5 -10 -14 -22 -20 -23 -11 -23 -11 3 -11 15 -1 37 8
50 19 l24 19 -27 1 c-16 0 -28 -4 -28 -8z"/>
<path d="M1403 1283 c-15 -5 -17 -23 -4 -23 5 0 11 7 15 15 3 8 4 15 3 14 -1
0 -8 -3 -14 -6z"/>
<path d="M1320 1230 c0 -5 5 -10 11 -10 5 0 7 5 4 10 -3 6 -8 10 -11 10 -2 0
-4 -4 -4 -10z"/>
<path d="M1156 1175 c-10 -8 -24 -11 -31 -9 -7 3 -16 1 -19 -4 -7 -11 66 -4
77 7 15 15 -8 20 -27 6z"/>
</g>
</svg>
